<?xml version="1.0" encoding="UTF-8"?>
<svg width="95px" height="50px" viewBox="0 0 95 50" version="1.1" xmlns="http://www.w3.org/2000/svg" xmlns:xlink="http://www.w3.org/1999/xlink">
    <title>Group</title>
    <g id="Page-1" stroke="none" stroke-width="1" fill="none" fill-rule="evenodd">
        <g id="Artboard" transform="translate(-28.000000, 0.000000)" fill="#333333">
            <g id="Group" transform="translate(28.000000, 0.000000)">
                <text id="F" font-family="Quicksand-Light, Quicksand" font-size="40" font-weight="300">
                    <tspan x="0" y="40">F</tspan>
                </text>
                <text id="d" font-family="Quicksand-Light, Quicksand" font-size="40" font-weight="300">
                    <tspan x="70" y="40">d</tspan>
                </text>
                <g id="infinity-svgrepo-com" transform="translate(23.000000, 18.000000)" fill-rule="nonzero">
                    <path d="M33.375,0 C26.96475,0 21.75,5.15867742 21.75,11.5 C21.75,17.0229677 17.208,21.516129 11.625,21.516129 C6.042,21.516129 1.5,17.0229677 1.5,11.5 C1.5,5.97703226 6.042,1.48387097 11.625,1.48387097 C13.64025,1.48387097 15.5865,2.06777419 17.25375,3.17325806 C17.80875,3.54051613 18.32775,3.96341935 18.79725,4.43009677 C19.08975,4.71945161 19.5645,4.72167742 19.85775,4.43232258 C20.15175,4.14296774 20.1525,3.67332258 19.86,3.38248387 C19.3215,2.84754839 18.72525,2.36232258 18.08925,1.94016129 C16.17375,0.670709677 13.938,0 11.625,0 C5.21475,0 0,5.15867742 0,11.5 C0,17.8413226 5.21475,23 11.625,23 C18.03525,23 23.25,17.8413226 23.25,11.5 C23.25,5.97703226 27.792,1.48387097 33.375,1.48387097 C38.958,1.48387097 43.5,5.97703226 43.5,11.5 C43.5,17.0229677 38.958,21.516129 33.375,21.516129 C30.67125,21.516129 28.12875,20.4751935 26.217,18.584 C25.92375,18.2939032 25.44975,18.2939032 25.1565,18.584 C24.86325,18.8740968 24.86325,19.343 25.1565,19.6330968 C27.35175,21.8047419 30.27,23 33.375,23 C39.78525,23 45,17.8413226 45,11.5 C45,5.15867742 39.78525,0 33.375,0 Z" id="Path"></path>
                </g>
            </g>
        </g>
    </g>
</svg>